<svg version="1.1" viewBox="0 0 16 16" xml:space="preserve" xmlns="http://www.w3.org/2000/svg">

  <defs>
    <linearGradient id="bg" y2="1">
      <stop offset="0" stop-color="#566" />
      <stop offset="1" stop-color="#344" />
    </linearGradient>
  </defs>

  <path d="m 0 4 v 9 a 1 1 0 0 0 1 1 h 14 a 1 1 0 0 0 1 -1 V 4 Z" fill="url(#bg)" />
  <rect width="6" height="2" x="5" y="2" fill="#ddd" />
  <path d="m 11 2 v 2 h 4 1 V 3 A 1 1 0 0 0 15 2 Z" fill="#bbb" />
  
  <path d="m 8 11 a 1 1 0 0 0 -1 1 1 1 0 0 0 1 1 h 3 a 1 1 0 0 0 1 -1 1 1 0 0 0 -1 -1 z" fill="#47b353" />

  <g fill="#fff">
    <path d="M 1 2 A 1 1 0 0 0 0 3 V 4 H 1 5 V 2 Z" />
    <path d="m 3.75 5.25 c -0.14 0 -0.25 0.11 -0.25 0.25 v 0.56 c -0.81 0.2 -1.5 0.86 -1.5 1.7 0 1.5 3 1.77 3 2.5 0 0.73 -0.5 0.75 -1 0.75 s -1 -0.25 -1.5 -0.5 l -0.5 1 c 0.41 0.2 0.82 0.41 1.5 0.48 v 0.4 c 0 0.14 0.11 0.25 0.25 0.25 h 0.5 c 0.14 0 0.25 -0.11 0.25 -0.25 v -0.44 c 0.8 -0.2 1.5 -0.86 1.5 -1.7 0 -1.5 -3 -1.75 -3 -2.5 0 -0.75 0.5 -0.75 1 -0.75 s 1 0.25 1.5 0.5 l 0.5 -1 c -0.41 -0.2 -0.82 -0.41 -1.5 -0.48 v -0.52 c 0 -0.14 -0.11 -0.25 -0.25 -0.25 z" />
  </g>

</svg>