<svg version="1.1" viewBox="0 0 16 16" xmlns="http://www.w3.org/2000/svg">

<defs>
    <linearGradient id="bg" y2="1">
        <stop offset="0" stop-color="#00f"/>
        <stop offset="1" stop-color="#12f"/>
    </linearGradient>
</defs>


<path d="m 0 4 v 9 a 1 1 0 0 0 1 1 h 14 a 1 1 0 0 0 1 -1 V 4 Z" fill="url(#bg)"/>
<path d="M 1 2 A 1 1 0 0 0 0 3 V 4 H 1 5 V 2 Z" fill="#bbf"/>
<rect width="6" height="2" x="5" y="2" fill="#99d"/>
<path d="m 11 2 v 2 h 4 1 V 3 A 1 1 0 0 0 15 2 Z" fill="#779"/>

<g fill="#fff">
    <rect width="5" height="1" x="2" y="5"/>
    <rect width="5" height="1" x="2" y="7"/>
    <rect width="5" height="1" x="2" y="9"/>
    <rect width="5" height="1" x="2" y="11"/>
    <rect width="5" height="1" x="9" y="5"/>
    <rect width="5" height="1" x="9" y="7"/>
    <rect width="5" height="1" x="9" y="9"/>
</g>

</svg>