<svg version="1.1" viewBox="0 0 16 16" xml:space="preserve" xmlns="http://www.w3.org/2000/svg">

  <defs>
    <linearGradient id="bg" y2="1">
      <stop offset="0" stop-color="#cba" />
      <stop offset="1" stop-color="#eda" />
    </linearGradient>
  </defs>

  <path d="m 0 4 v 9 a 1 1 0 0 0 1 1 h 14 a 1 1 0 0 0 1 -1 V 4 Z" fill="url(#bg)" />
  <rect width="6" height="2" x="5" y="2" fill="#654" />
  <path d="m 11 2 v 2 h 4 1 V 3 A 1 1 0 0 0 15 2 Z" fill="#876" />

  <g fill="#432">
    <path d="M 1 2 A 1 1 0 0 0 0 3 V 4 H 1 5 V 2 Z" />
    <path d="m 8 10 a 1 1 0 0 0 -1 1 1 1 0 0 0 1 1 h 3 a 1 1 0 0 0 1 -1 1 1 0 0 0 -1 -1 z" />
    <path d="m 3 6 -1.41 1.41 1.59 1.59 -1.59 1.59 1.41 1.41 3 -3 z" />
  </g>

</svg>